# xmcd
#
# Track frame offsets: 
#        150
#        14651
#        31375
#        49702
#        66183
#        82598
#        100533
#        116595
#        131483
#        146577
#        163666
#        176658
#        191932
#        208676
#        224483
#        243035
#        260280
#        275915
#        294645
#        309328
#        326769
#
# Disc length: 4567 seconds
#
# Revision: 0
# Processed by: cddbd v1.5.1PL0 Copyright (c) Steve Scherf et al.
# Submitted via: ExactAudioCopy v0.95a5
#
DISCID=3911d515
DTITLE=Various Artist - Black Hits vol. 15
DYEAR=2006
DGENRE=R&B
TTITLE0=Gwen Stefani - Cool
TTITLE1=Black Eyed Peas - Don't Lie
TTITLE2=2 Pac feat. Elton John - Ghetto Gospel
TTITLE3=Rihanna Pon De - Replay
TTITLE4=Sean Paul - We Be Burning
TTITLE5=Kanye West - Diamonds Form Sierra Leone
TTITLE6=Lady Sovereign - 9 To 5
TTITLE7=Akon - Belly Dancer (Bananza)
TTITLE8=Mariah Carey - Get Your Number
TTITLE9=TQ - Right On
TTITLE10=Speedy feat. Lumidee - Sientelo
TTITLE11=Bow Wow feat. Ciara - Like You
TTITLE12=Amerie - Touch
TTITLE13=Shaggy - Wild 2 Nite
TTITLE14=Ebony Eyes feat. Slim And Q Of 112 - Take Me Back
TTITLE15=Kano feat. Mike Skinner and Leo The Lion - Nite Nite
TTITLE16=Kelly Klarkson - Behind These Hazel Eyes
TTITLE17=Ryan Leslie feat. Fabolous - Used 2 Be
TTITLE18=Busta Rhymes - III Hurt You.wav
TTITLE19=David Banner - Play
TTITLE20=Kanye West feat. Jamie Foxx - Gold Digger
EXTD=
EXTT0=
EXTT1=
EXTT2=
EXTT3=
EXTT4=
EXTT5=
EXTT6=
EXTT7=
EXTT8=
EXTT9=
EXTT10=
EXTT11=
EXTT12=
EXTT13=
EXTT14=
EXTT15=
EXTT16=
EXTT17=
EXTT18=
EXTT19=
EXTT20=
PLAYORDER=
